<svg version="1.1" id="Layer_1" x="0px" y="0px" width="100%" viewBox="0 0 5999 1243" enable-background="new 0 0 5999 1243" xmlns="http://www.w3.org/2000/svg">
  <defs></defs>
  <path fill="#0064A9" opacity="1.000000" stroke="none" d="M 4311.357 968.747 C 4249.581 930.513 4203.495 878.711 4171.985 813.091 C 4155.519 778.803 4144.5 742.796 4137.591 705.432 C 4131.178 670.759 4128.42 635.655 4129.941 600.422 C 4132.616 538.425 4145.137 478.731 4171.94 422.578 C 4187.594 389.781 4207.177 359.661 4231.288 332.866 C 4258.865 302.219 4290.808 277.126 4326.804 257.348 C 4362.737 237.604 4400.779 223.978 4440.764 216.717 C 4483.32 208.99 4526.165 206.189 4569.49 211.137 C 4600.851 214.718 4631.639 220.166 4661.611 230.18 C 4719.969 249.678 4770.589 281.767 4812.544 327.763 C 4819.112 334.963 4825.124 342.693 4832.133 351.062 C 4822.524 359.313 4813.696 366.994 4804.76 374.542 C 4786.471 389.989 4768.057 405.281 4749.82 420.791 C 4728.473 438.945 4704.344 447.852 4676.464 443.797 C 4662.035 441.699 4648.772 436.391 4637.117 427.066 C 4613.225 407.948 4586.22 395.677 4556.236 391.167 C 4537.74 388.384 4519.156 387.511 4500.281 389.831 C 4480.151 392.303 4460.851 397.006 4442.42 405.326 C 4413.365 418.442 4389.595 438.228 4370.663 464.466 C 4348.69 494.921 4336.517 529.373 4330.702 566.15 C 4326.817 590.712 4325.835 615.555 4327.643 640.656 C 4329.253 662.98 4332.454 684.862 4338.938 706.032 C 4356.33 762.812 4388.911 806.96 4443.502 831.279 C 4474.733 845.191 4507.603 849.904 4541.606 846.6 C 4567.554 844.078 4592.191 837.297 4614.857 823.971 C 4622.079 819.725 4629.005 814.871 4635.709 809.8 C 4667.9 785.452 4711.53 789.354 4740.796 814.166 C 4751.607 823.332 4762.116 832.869 4772.789 842.206 C 4775.027 844.165 4777.376 845.992 4780.433 848.502 C 4783.259 841.269 4786.019 834.768 4788.366 828.114 C 4812.604 759.391 4836.684 690.611 4860.993 621.915 C 4885.976 551.308 4911.197 480.79 4936.253 410.21 C 4951.4 367.545 4966.351 324.807 4981.532 282.155 C 4994.052 246.983 5025.901 224.152 5062.41 224.102 C 5113.315 224.03 5164.22 224.083 5215.124 224.083 C 5218.424 224.083 5221.725 224.083 5225.534 224.083 C 5312.976 471.111 5400.206 717.54 5487.437 963.971 C 5488.147 963.82 5488.856 963.67 5489.566 963.519 C 5489.566 959.539 5489.566 955.559 5489.566 951.578 C 5489.566 738.298 5489.944 525.017 5489.264 311.739 C 5489.119 266.219 5527.935 223.607 5574.67 224.034 C 5603.804 224.301 5632.942 224.083 5662.078 224.083 C 5770.249 224.083 5878.421 224.083 5986.594 224.083 C 5990.865 224.083 5995.137 224.083 6000.001 224.083 C 6000.001 276.708 6000.001 328.179 6000.001 381.132 C 5894.082 381.132 5788.793 381.132 5683.096 381.132 C 5683.096 437.562 5683.096 492.508 5683.096 548.361 C 5761.946 548.361 5840.182 548.361 5918.123 548.361 C 5920.68 556.355 5921.565 682.045 5919.32 700.77 C 5915.077 701.053 5910.572 701.609 5906.067 701.612 C 5836.408 701.668 5766.749 701.652 5697.09 701.652 C 5692.789 701.652 5688.485 701.652 5683.103 701.652 C 5682.863 706.535 5682.501 710.482 5682.499 714.43 C 5682.465 788.376 5682.477 862.323 5682.47 936.269 C 5682.468 957.742 5677.303 977.471 5663.714 994.38 C 5646.149 1016.24 5623.141 1026.127 5595.896 1026.171 C 5524.897 1026.288 5453.899 1026.213 5382.901 1026.213 C 5360.129 1026.213 5337.355 1026.244 5314.582 1026.193 C 5305.365 1026.171 5305.096 1026.183 5301.992 1016.993 C 5288.702 977.642 5275.592 938.226 5262.391 898.843 C 5260.884 894.348 5259.222 889.905 5257.29 884.476 C 5253.553 884.476 5249.93 884.476 5246.307 884.476 C 5157.559 884.476 5068.812 884.472 4980.063 884.48 C 4967.747 884.482 4967.789 884.526 4963.927 896.186 C 4950.217 937.579 4936.482 978.964 4922.726 1020.341 C 4922.196 1021.935 4921.367 1023.424 4920.416 1025.541 C 4853.974 1025.541 4787.472 1025.541 4719.848 1025.541 C 4722.729 1006.736 4732.561 990.811 4736.751 970.622 C 4692.293 996.701 4646.317 1012.724 4597.6 1020.395 C 4548.304 1028.156 4498.974 1028.147 4449.796 1019.811 C 4400.902 1011.524 4354.588 995.492 4311.357 968.747 M 5067.19 583.698 C 5051.252 632.771 5034.912 681.712 5019.256 731.07 C 5021.506 731.769 5022.432 732.306 5023.358 732.307 C 5082.287 732.403 5141.215 732.46 5200.143 732.481 C 5201.789 732.481 5203.441 732.066 5205.08 731.785 C 5205.349 731.739 5205.59 731.402 5205.803 731.161 C 5206.028 730.909 5206.199 730.61 5207.05 729.398 C 5176.119 636.051 5144.978 542.071 5113.837 448.09 C 5113.089 448.14 5112.34 448.189 5111.593 448.238 C 5096.954 492.873 5082.317 537.508 5067.19 583.698 Z" style=""></path>
  <path fill="#004B79" opacity="1.000000" stroke="none" d="M 214.611 848.555 C 214.61 870.461 214.382 891.345 214.702 912.221 C 214.864 922.801 211.609 931.242 204.18 938.792 C 151.941 991.889 99.887 1045.176 47.86 1098.493 C 39.743 1106.811 30.819 1111.573 19.079 1107.941 C 7.05 1104.219 0.447 1095.208 0.266 1082.16 C 0.233 1079.765 0.255 1077.368 0.255 1074.971 C 0.255 769.298 0.339 463.623 0 157.949 C -0.016 143.332 4.497 132.753 14.467 122.654 C 50.108 86.548 85.283 49.956 120.273 13.189 C 129.078 3.938 138.744 -0.009 151.415 0 C 449.771 0.225 748.128 0.169 1046.484 0.221 C 1051.134 0.222 1055.94 0.27 1060.406 1.397 C 1080.318 6.422 1087.254 31.016 1072.827 45.916 C 1046.478 73.128 1019.804 100.009 993.321 127.086 C 968.496 152.47 943.625 177.81 919.026 203.422 C 910.831 211.954 901.931 216.109 889.758 216.09 C 676.792 215.776 463.823 215.858 250.855 215.897 C 245.852 215.898 240.771 215.919 235.863 216.759 C 224.037 218.781 216.235 227.45 215.02 239.621 C 214.547 244.37 214.627 249.19 214.627 253.977 C 214.609 451.827 214.612 649.677 214.611 848.555 Z" style=""></path>
  <path fill="#004B79" opacity="1.000000" stroke="none" d="M 429.955 1027.271 C 609.113 1027.271 787.267 1027.29 965.421 1027.187 C 971.022 1027.183 976.871 1026.754 982.171 1025.085 C 992.485 1021.835 997.875 1013.895 998.805 1002.97 C 999.153 998.89 998.966 994.76 998.966 990.653 C 998.971 777.044 998.971 563.435 998.972 349.826 C 998.972 346.061 998.965 342.296 998.991 338.53 C 999.059 328.907 1001.931 320.669 1008.854 313.652 C 1041.884 280.164 1074.699 246.454 1107.6 212.833 C 1127.72 192.272 1147.831 171.702 1167.996 151.186 C 1181.005 137.95 1201.001 139.317 1210.402 154.661 C 1213.267 159.339 1214.017 165.505 1215.147 171.113 C 1215.809 174.402 1215.333 177.934 1215.333 181.357 C 1215.337 481.574 1215.337 781.789 1215.334 1082.006 C 1215.334 1085.429 1215.522 1088.873 1215.225 1092.271 C 1214.466 1100.979 1211.771 1108.649 1205.444 1115.167 C 1172.919 1148.673 1140.659 1182.444 1108.249 1216.067 C 1102.144 1222.401 1095.8 1228.497 1089.538 1234.671 C 1083.719 1240.406 1076.83 1243.343 1068.661 1242.968 C 1065.987 1242.846 1063.303 1242.956 1060.625 1242.956 C 765.264 1242.956 469.903 1242.956 174.542 1242.955 C 171.194 1242.955 167.839 1243.063 164.497 1242.908 C 153.227 1242.39 144.232 1237.925 140.141 1226.543 C 136.142 1215.417 137.474 1205.031 145.941 1196.222 C 160.716 1180.851 175.379 1165.366 190.261 1150.103 C 226.195 1113.251 262.369 1076.64 298.118 1039.602 C 306.459 1030.96 315.486 1026.9 327.488 1027.087 C 361.302 1027.615 395.128 1027.271 429.955 1027.271 Z" style=""></path>
  <path fill="#004B79" opacity="1.000000" stroke="none" d="M 1788.374 1033.429 C 1749.997 1034.994 1713.132 1030.921 1676.861 1021.919 C 1612.873 1006.038 1556.814 975.836 1512.875 924.628 C 1480.356 886.729 1460.055 842.638 1450.528 793.269 C 1446.244 771.066 1444.34 748.678 1444.364 726.018 C 1444.509 593.202 1444.455 460.388 1444.423 327.572 C 1444.415 296.159 1456.25 270.35 1479.875 250.507 C 1496.384 236.643 1515.413 229.137 1537.146 229.275 C 1568.622 229.475 1600.1 229.295 1631.577 229.367 C 1635.831 229.376 1640.084 229.907 1645.278 230.261 C 1645.553 236 1646 241.014 1646.001 246.028 C 1646.037 408.966 1646.089 571.905 1645.993 734.844 C 1645.966 779.221 1664.908 813.116 1700.292 837.562 C 1731.386 859.043 1766.073 866.783 1803.365 863.197 C 1839.593 859.712 1871.403 846.531 1897.125 819.569 C 1919.179 796.452 1930.653 768.736 1930.681 736.457 C 1930.802 596.454 1930.777 456.45 1930.683 316.446 C 1930.671 299.388 1932.758 283.019 1941.909 268.276 C 1956.901 244.126 1977.791 229.792 2006.28 229.429 C 2039.761 229.003 2073.25 229.302 2106.737 229.367 C 2110.666 229.374 2114.592 229.887 2119.412 230.23 C 2119.731 234.549 2120.235 238.189 2120.236 241.83 C 2120.274 409.561 2121.33 577.302 2119.773 745.017 C 2119.101 817.297 2093.255 881.279 2043.829 934.077 C 2005.899 974.593 1959.399 1000.672 1907.206 1016.717 C 1877.924 1025.719 1847.835 1030.31 1817.49 1033.162 C 1808.19 1034.038 1798.753 1033.383 1788.374 1033.429 Z" style=""></path>
  <path fill="#0064A9" opacity="1.000000" stroke="none" d="M 3982.766 694.488 C 3920.209 694.488 3858.658 694.488 3795.61 694.488 C 3795.473 752.335 3795.57 809.297 3795.541 867.302 C 3800.866 867.592 3805.41 868.052 3809.953 868.054 C 3896.015 868.097 3982.075 868.086 4068.136 868.086 C 4072.755 868.086 4077.374 868.086 4081.656 868.086 C 4082.523 870.113 4083.254 871.025 4083.252 871.935 C 4083.222 898.277 4084.208 924.683 4082.757 950.946 C 4080.792 986.548 4052.777 1017.441 4018.369 1024.017 C 4011.178 1025.39 4003.759 1026.117 3996.445 1026.124 C 3869.53 1026.248 3742.616 1026.213 3615.701 1026.213 C 3611.417 1026.213 3607.133 1026.213 3601.7 1026.213 C 3601.545 1020.292 3601.315 1015.614 3601.315 1010.935 C 3601.297 807.601 3601.299 604.268 3601.299 400.935 C 3601.299 372.865 3601.069 344.792 3601.392 316.727 C 3601.573 300.926 3603.862 285.414 3611.68 271.333 C 3628.161 241.648 3652.891 225.314 3686.438 224.195 C 3704.836 223.582 3723.27 224.083 3741.687 224.083 C 3850.854 224.082 3960.021 224.082 4069.187 224.082 C 4073.48 224.082 4077.774 224.082 4081.812 224.082 C 4083.95 232.708 4084.365 367.819 4082.339 380.459 C 4078.057 380.696 4073.509 381.164 4068.96 381.166 C 3982.564 381.21 3896.169 381.199 3809.774 381.2 C 3805.487 381.2 3801.201 381.2 3796.231 381.2 C 3796.231 435.29 3796.231 488.152 3796.231 542.263 C 3880.322 542.263 3964.163 542.263 4048.703 542.263 C 4048.703 593.296 4048.703 643.09 4048.703 694.202 C 4037.774 694.777 4026.834 694.407 4015.917 694.474 C 4005.202 694.54 3994.487 694.488 3982.766 694.488 Z" style=""></path>
  <path fill="#0064A9" opacity="1.000000" stroke="none" d="M 3048.291 263.376 C 3056.747 250.304 3066.621 239.981 3079.804 232.963 C 3090.777 227.121 3102.288 224.133 3114.497 224.127 C 3256.479 224.061 3398.461 224.081 3540.443 224.11 C 3543.362 224.111 3546.282 224.491 3549.672 224.726 C 3549.672 276.803 3549.672 328.272 3549.672 381.141 C 3443.32 381.141 3337.674 381.141 3231.456 381.141 C 3231.456 437.479 3231.456 492.412 3231.456 548.481 C 3310.839 548.481 3389.688 548.481 3469.265 548.481 C 3469.265 599.706 3469.265 649.798 3469.265 700.813 C 3449.225 702.57 3429.564 701.391 3409.95 701.604 C 3390.195 701.819 3370.436 701.651 3350.679 701.651 C 3330.923 701.651 3311.165 701.651 3291.409 701.651 C 3271.713 701.651 3252.016 701.651 3230.873 701.651 C 3230.873 706.788 3230.872 710.756 3230.872 714.725 C 3230.872 793.114 3230.415 871.507 3231.07 949.89 C 3231.383 987.306 3203.272 1024.856 3158.639 1025.987 C 3121.158 1026.936 3083.635 1026.198 3046.13 1026.145 C 3043.867 1026.142 3041.604 1025.598 3038.483 1025.195 C 3038.302 1021.24 3037.987 1017.581 3037.987 1013.922 C 3037.963 776.702 3037.972 539.482 3037.949 302.263 C 3037.948 288.581 3041.759 276.006 3048.291 263.376 Z" style=""></path>
  <path fill="#004B79" opacity="1.000000" stroke="none" d="M 2383.449 511.871 C 2408.88 493.006 2436.657 482.015 2466.807 476.586 C 2511.5 468.539 2554.92 472.868 2596.744 490.721 C 2632.099 505.812 2659.563 530.751 2679.571 564.119 C 2699.552 597.443 2709.584 634.05 2712.492 672.758 C 2713.721 689.096 2714.313 705.521 2714.357 721.909 C 2714.551 794.143 2714.537 866.379 2714.399 938.614 C 2714.33 975.28 2697.972 1001.851 2665.962 1018.403 C 2655.866 1023.624 2644.947 1025.729 2633.9 1025.93 C 2608.792 1026.383 2583.669 1026.1 2558.552 1026.033 C 2556.261 1026.027 2553.971 1025.42 2550.597 1024.937 C 2550.281 1020.202 2549.705 1015.564 2549.702 1010.925 C 2549.649 917.464 2549.751 824.004 2549.583 730.543 C 2549.55 711.655 2546.943 693.028 2540.081 675.316 C 2528.28 644.849 2507.048 625.368 2475.578 617.829 C 2454.559 612.794 2433.828 613.437 2413.236 620.133 C 2381.525 630.443 2362.346 652.997 2353.086 684.908 C 2348.788 699.714 2347.285 715.011 2347.308 730.504 C 2347.41 799.658 2347.387 868.812 2347.325 937.966 C 2347.309 956.124 2343.477 973.324 2333.248 988.476 C 2316.874 1012.727 2293.923 1025.237 2265.296 1025.966 C 2240.529 1026.595 2215.734 1026.193 2190.952 1026.066 C 2181.341 1026.017 2180.83 1025.276 2180.593 1015.466 C 2180.535 1013.07 2180.572 1010.672 2180.572 1008.276 C 2180.571 837.445 2180.571 666.614 2180.571 495.783 C 2180.571 490.726 2180.571 485.669 2180.571 481.011 C 2189.437 478.284 2335.399 477.914 2346.798 480.442 C 2348.285 501.076 2346.536 522.141 2347.789 543.897 C 2360.022 532.86 2371.433 522.565 2383.449 511.871 Z" style=""></path>
  <path fill="#1BB267" opacity="1.000000" stroke="none" d="M 806.699 848.537 C 674.892 848.549 543.983 848.552 413.074 848.55 C 410.396 848.55 407.658 848.864 405.051 848.412 C 395.747 846.797 386.705 841.813 387.407 828.809 C 387.537 826.421 387.416 824.018 387.416 821.622 C 387.415 690.198 387.415 558.774 387.417 427.35 C 387.417 424.27 387.303 421.182 387.478 418.112 C 388.061 407.855 394.783 401.177 404.837 400.761 C 406.508 400.692 408.184 400.746 409.858 400.746 C 540.767 400.746 671.676 400.744 802.586 400.749 C 805.263 400.749 807.967 400.561 810.615 400.869 C 818.473 401.783 824.716 408.417 825.422 416.465 C 825.601 418.504 825.49 420.569 825.491 422.623 C 825.493 557.127 825.515 691.631 825.394 826.135 C 825.391 830.396 824.635 834.978 822.965 838.839 C 820.162 845.319 814.433 848.123 806.699 848.537 Z" style=""></path>
  <path fill="#004B79" opacity="1.000000" stroke="none" d="M 2952.216 723.249 C 2952.214 795.468 2952.238 866.66 2952.194 937.853 C 2952.182 956.015 2948.36 973.202 2938.16 988.367 C 2921.832 1012.642 2898.927 1025.233 2870.293 1025.959 C 2845.196 1026.596 2820.072 1026.127 2794.961 1026.051 C 2792.362 1026.043 2789.767 1025.385 2786.266 1024.906 C 2785.974 1019.832 2785.47 1015.161 2785.469 1010.489 C 2785.426 864.34 2785.566 718.19 2785.363 572.04 C 2785.291 520.259 2822.567 481.461 2866.683 479.526 C 2894.388 478.311 2922.186 479.3 2951.194 479.3 C 2951.54 484.045 2952.166 488.643 2952.17 493.243 C 2952.231 569.569 2952.215 645.895 2952.216 723.249 Z" style=""></path>
  <path fill="#004B79" opacity="1.000000" stroke="none" d="M 2810.343 257.936 C 2851.344 234.839 2891.621 234.737 2930.58 260.23 C 2951.936 274.203 2963.016 295.492 2966.48 321.443 C 2973.216 371.89 2938.969 413.441 2891.556 422.104 C 2871.41 425.784 2851.605 424.677 2832.211 417.897 C 2797.862 405.888 2776.101 382.13 2771.558 344.951 C 2767.141 308.803 2779.633 279.215 2810.343 257.936 Z" style=""></path>
</svg>